REM GENRE Drum & Bass
REM DATE 2004
REM COMMENT ..::boss 2k4::..
PERFORMER "Black Sun Empire"
TITLE "Driving Insane-Retail 2CD"
FILE "201-va_-_driving_insane_mixed_by_black_sun_empire-boss.mp3" WAVE
  TRACK 01 AUDIO
    TITLE "Cryogenic (BSE remix)"
    PERFORMER "Black Sun Empire"
    INDEX 01 00:00:00
  TRACK 02 AUDIO
    TITLE "The Rat"
    PERFORMER "Black Sun Empire"
    INDEX 01 04:19:22
  TRACK 03 AUDIO
    TITLE "The Pursuit"
    PERFORMER "Black Sun Empire"
    INDEX 01 06:12:28
  TRACK 04 AUDIO
    TITLE "Breach"
    PERFORMER "Black Sun Empire"
    INDEX 01 07:51:51
  TRACK 05 AUDIO
    TITLE "Bad Illusions (BSE remix)"
    PERFORMER "Black Sun Empire"
    INDEX 01 11:10:23
  TRACK 06 AUDIO
    TITLE "Recharger (BSE remix)"
    PERFORMER "Black Sun Empire"
    INDEX 01 13:00:49
  TRACK 07 AUDIO
    TITLE "Stasis"
    PERFORMER "Black Sun Empire"
    INDEX 01 15:57:16
  TRACK 08 AUDIO
    TITLE "Stone Faces"
    PERFORMER "Black Sun Empire"
    INDEX 01 18:31:51
  TRACK 09 AUDIO
    TITLE "Boris the Blade"
    PERFORMER "Black Sun Empire"
    INDEX 01 21:13:24
  TRACK 10 AUDIO
    TITLE "B'Negative (SKC & Chris.Su remix)"
    PERFORMER "Black Sun Empire"
    INDEX 01 25:28:18
  TRACK 11 AUDIO
    TITLE "Don't you"
    PERFORMER "Black Sun Empire"
    INDEX 01 28:05:34
  TRACK 12 AUDIO
    TITLE "Scorned"
    PERFORMER "Black Sun Empire"
    INDEX 01 29:55:60
  TRACK 13 AUDIO
    TITLE "AI"
    PERFORMER "Black Sun Empire"
    INDEX 01 33:58:44
  TRACK 14 AUDIO
    TITLE "Gunseller"
    PERFORMER "Black Sun Empire"
    INDEX 01 36:10:74
  TRACK 15 AUDIO
    TITLE "Swipe"
    PERFORMER "Black Sun Empire"
    INDEX 01 38:01:23
  TRACK 16 AUDIO
    TITLE "B'Negative (Ill.Skillz remix)"
    PERFORMER "Black Sun Empire"
    INDEX 01 40:13:54
  TRACK 17 AUDIO
    TITLE "Driving Insane"
    PERFORMER "Black Sun Empire"
    INDEX 01 42:26:07
  TRACK 18 AUDIO
    TITLE "AI (Rawthang remix)"
    PERFORMER "Black Sun Empire"
    INDEX 01 45:44:54
  TRACK 19 AUDIO
    TITLE "Arrakis"
    PERFORMER "Black Sun Empire"
    INDEX 01 49:47:34
  TRACK 20 AUDIO
    TITLE "Unicorn (BSE remix)"
    PERFORMER "Black Sun Empire"
    INDEX 01 54:56:32
  TRACK 21 AUDIO
    TITLE "The Sun VIP"
    PERFORMER "Black Sun Empire"
    INDEX 01 59:43:24
  TRACK 22 AUDIO
    TITLE "Epilogue VIP"
    PERFORMER "Black Sun Empire"
    INDEX 01 61:55:55
